<svg xmlns="http://www.w3.org/2000/svg" xmlns:xlink="http://www.w3.org/1999/xlink" viewBox="0 0 500 500"><defs><style>.cls-1{fill:url(#Degradado_sin_nombre_928);}.cls-2{fill:url(#Degradado_sin_nombre_928-2);}.cls-3{fill:url(#Degradado_sin_nombre_928-3);}.cls-4{fill:url(#Degradado_sin_nombre_928-4);}.cls-5{fill:url(#Degradado_sin_nombre_928-5);}.cls-6{fill:url(#Degradado_sin_nombre_928-6);}.cls-7{fill:url(#Degradado_sin_nombre_928-7);}</style><linearGradient id="Degradado_sin_nombre_928" x1="2206.89" y1="1277.49" x2="2189.66" y2="1247.66" gradientTransform="translate(1879.14 2174.34) rotate(-159.54)" gradientUnits="userSpaceOnUse"><stop offset="0" stop-color="#5f96ff"/><stop offset="0.58" stop-color="#4f54d9"/><stop offset="0.73" stop-color="#4f4fd6"/><stop offset="0.91" stop-color="#4e41cc"/><stop offset="1" stop-color="#4e37c5"/></linearGradient><linearGradient id="Degradado_sin_nombre_928-2" x1="-505.44" y1="1330.47" x2="-567.41" y2="1330.47" gradientTransform="matrix(0.99, 0.13, 0.13, -0.99, 609.92, 1566.59)" xlink:href="#Degradado_sin_nombre_928"/><linearGradient id="Degradado_sin_nombre_928-3" x1="2202.97" y1="1243.01" x2="2269.85" y2="1243.01" gradientTransform="translate(2315.56 1798.16) rotate(-172.27)" xlink:href="#Degradado_sin_nombre_928"/><linearGradient id="Degradado_sin_nombre_928-4" x1="2226.5" y1="1302.08" x2="2215.17" y2="1282.47" gradientTransform="translate(2306.27 1817.08) rotate(-172.27)" xlink:href="#Degradado_sin_nombre_928"/><linearGradient id="Degradado_sin_nombre_928-5" x1="2282.82" y1="1336.75" x2="2251.65" y2="1305.58" gradientTransform="translate(2306.27 1817.08) rotate(-172.27)" xlink:href="#Degradado_sin_nombre_928"/><linearGradient id="Degradado_sin_nombre_928-6" x1="266.06" y1="187.9" x2="272.27" y2="203.61" gradientTransform="matrix(1, 0, 0, 1, 0, 0)" xlink:href="#Degradado_sin_nombre_928"/><linearGradient id="Degradado_sin_nombre_928-7" x1="251.22" y1="241.39" x2="257.43" y2="257.1" gradientTransform="matrix(1, 0, 0, 1, 0, 0)" xlink:href="#Degradado_sin_nombre_928"/></defs><g id="Layer_5"><path class="cls-1" d="M212.29,242.78a10.19,10.19,0,0,0,1,2.39,6.66,6.66,0,0,0,1.55,1.82,3.64,3.64,0,0,0,1.9.82,4.31,4.31,0,0,0,2.26-.37l91.79-38.36-1.65-5.93c-.6-2.1-1.4-3.49-2.46-4.22a3.92,3.92,0,0,0-3.87-.22L210.66,237Z"/><path class="cls-2" d="M240.06,196.66l-15.18-11.74a6.55,6.55,0,0,1,1.09-.55l65.15-26.68-1.88,13.83a9.23,9.23,0,0,1-5.66,7.31Z"/><path class="cls-3" d="M229.86,288.35l1.88-13.83a9.27,9.27,0,0,1,5.66-7.31l61.27-25a11.76,11.76,0,0,1,3.58,10.14,11.88,11.88,0,0,1-7.24,9.37Z"/><path class="cls-4" d="M260.29,233.46l17.85-7.37,3.34,2.57v.06l16.31,12.62a6.92,6.92,0,0,1,.89.82l-17.75,7.26Z"/><path class="cls-5" d="M218.73,193.74a11.82,11.82,0,0,1,6.15-8.82l36,27.81L243,220.08l-3.5-2.7v-.07l-16.3-12.6A11.93,11.93,0,0,1,218.73,193.74Z"/><circle class="cls-6" cx="269.17" cy="195.76" r="8.45"/><circle class="cls-7" cx="254.33" cy="249.24" r="8.45"/></g></svg>